<?xml version="1.0" encoding="UTF-8" standalone="no"?>
<svg
   xmlns:dc="http://purl.org/dc/elements/1.1/"
   xmlns:cc="http://creativecommons.org/ns#"
   xmlns:rdf="http://www.w3.org/1999/02/22-rdf-syntax-ns#"
   xmlns:svg="http://www.w3.org/2000/svg"
   xmlns="http://www.w3.org/2000/svg"
   xmlns:sodipodi="http://sodipodi.sourceforge.net/DTD/sodipodi-0.dtd"
   xmlns:inkscape="http://www.inkscape.org/namespaces/inkscape"
   version="1.1"
   id="Capa_1"
   x="0px"
   y="0px"
   viewBox="0 0 213.8719 70"
   xml:space="preserve"
   sodipodi:docname="testFlight.svg"
   width="213.8719"
   height="70"
   inkscape:version="1.0 (4035a4fb49, 2020-05-01)"><metadata
   id="metadata67"><rdf:RDF><cc:Work
       rdf:about=""><dc:format>image/svg+xml</dc:format><dc:type
         rdf:resource="http://purl.org/dc/dcmitype/StillImage" /><dc:title></dc:title></cc:Work></rdf:RDF></metadata><defs
   id="defs65">
	
</defs><sodipodi:namedview
   inkscape:document-rotation="0"
   pagecolor="#ffffff"
   bordercolor="#666666"
   borderopacity="1"
   objecttolerance="10"
   gridtolerance="10"
   guidetolerance="10"
   inkscape:pageopacity="0"
   inkscape:pageshadow="2"
   inkscape:window-width="1920"
   inkscape:window-height="1017"
   id="namedview63"
   showgrid="false"
   fit-margin-top="0"
   fit-margin-left="0"
   fit-margin-right="0"
   fit-margin-bottom="0"
   inkscape:zoom="2.0301699"
   inkscape:cx="87.258588"
   inkscape:cy="9.5741461"
   inkscape:window-x="1592"
   inkscape:window-y="-8"
   inkscape:window-maximized="1"
   inkscape:current-layer="Capa_1" />





<g
   id="g32"
   transform="translate(-600.80829,-302.15375)">
</g>
<g
   id="g34"
   transform="translate(-600.80829,-302.15375)">
</g>
<g
   id="g36"
   transform="translate(-600.80829,-302.15375)">
</g>
<g
   id="g38"
   transform="translate(-600.80829,-302.15375)">
</g>
<g
   id="g40"
   transform="translate(-600.80829,-302.15375)">
</g>
<g
   id="g42"
   transform="translate(-600.80829,-302.15375)">
</g>
<g
   id="g44"
   transform="translate(-600.80829,-302.15375)">
</g>
<g
   id="g46"
   transform="translate(-600.80829,-302.15375)">
</g>
<g
   id="g48"
   transform="translate(-600.80829,-302.15375)">
</g>
<g
   id="g50"
   transform="translate(-600.80829,-302.15375)">
</g>
<g
   id="g52"
   transform="translate(-600.80829,-302.15375)">
</g>
<g
   id="g54"
   transform="translate(-600.80829,-302.15375)">
</g>
<g
   id="g56"
   transform="translate(-600.80829,-302.15375)">
</g>
<g
   id="g58"
   transform="translate(-600.80829,-302.15375)">
</g>
<g
   id="g60"
   transform="translate(-600.80829,-302.15375)">
</g>
<g
   id="g970"
   transform="translate(-600.80829,-302.15375)"><rect
     style="fill:#000000;stroke-width:1.88976;stroke-linecap:round;stroke-linejoin:round"
     id="rect833"
     width="213.8719"
     height="70"
     x="600.80829"
     y="302.15375"
     ry="8.9243126" /><g
     style="font-style:normal;font-variant:normal;font-weight:normal;font-stretch:normal;font-size:33.1408px;line-height:1.25;font-family:Calibri;-inkscape-font-specification:'Calibri, Normal';font-variant-ligatures:normal;font-variant-caps:normal;font-variant-numeric:normal;font-variant-east-asian:normal;letter-spacing:0px;word-spacing:0px;fill:#ffffff;stroke-width:0.999994"
     id="text921"
     aria-label="TestFlight"><path
       id="path860"
       style="fill:#ffffff;stroke-width:0.999994"
       d="m 688.91524,325.72924 q 0,0.30745 -0.0324,0.534 -0.0324,0.22655 -0.11327,0.37219 -0.0647,0.12946 -0.178,0.19418 -0.0971,0.0647 -0.22655,0.0647 h -5.89026 v 18.15624 q 0,0.12946 -0.0647,0.22655 -0.0647,0.0971 -0.22655,0.16182 -0.16182,0.0486 -0.43691,0.0809 -0.25891,0.0485 -0.66347,0.0485 -0.38836,0 -0.66346,-0.0485 -0.27509,-0.0324 -0.43691,-0.0809 -0.16182,-0.0647 -0.22655,-0.16182 -0.0647,-0.0971 -0.0647,-0.22655 v -18.15624 h -5.89026 q -0.12946,0 -0.24273,-0.0647 -0.0971,-0.0647 -0.16182,-0.19418 -0.0647,-0.14564 -0.11327,-0.37219 -0.0324,-0.22655 -0.0324,-0.534 0,-0.30746 0.0324,-0.53401 0.0485,-0.24273 0.11327,-0.38837 0.0647,-0.14564 0.16182,-0.21037 0.11327,-0.0647 0.24273,-0.0647 h 14.56383 q 0.12945,0 0.22655,0.0647 0.11327,0.0647 0.178,0.21037 0.0809,0.14564 0.11327,0.38837 0.0324,0.22655 0.0324,0.53401 z" /><path
       id="path862"
       style="fill:#ffffff;stroke-width:0.999994"
       d="m 701.18122,337.15375 q 0,0.6311 -0.32364,0.90619 -0.30746,0.25892 -0.71201,0.25892 h -9.5474 q 0,1.21365 0.24273,2.18457 0.24273,0.97092 0.8091,1.66675 0.56637,0.69583 1.47257,1.06801 0.90619,0.37219 2.21693,0.37219 1.03565,0 1.84476,-0.16182 0.8091,-0.178 1.39165,-0.38837 0.59874,-0.21037 0.97092,-0.37219 0.38837,-0.178 0.58256,-0.178 0.11327,0 0.19418,0.0647 0.0971,0.0486 0.14564,0.16182 0.0485,0.11327 0.0647,0.32364 0.0324,0.19419 0.0324,0.48546 0,0.21037 -0.0162,0.37219 -0.0162,0.14564 -0.0485,0.27509 -0.0162,0.11328 -0.0809,0.21037 -0.0485,0.0971 -0.14564,0.19418 -0.0809,0.0809 -0.51782,0.29128 -0.43692,0.19418 -1.13274,0.38837 -0.69583,0.19418 -1.61821,0.33982 -0.90619,0.16182 -1.94184,0.16182 -1.79621,0 -3.1555,-0.50164 -1.3431,-0.50164 -2.26548,-1.48875 -0.92238,-0.9871 -1.39166,-2.47585 -0.46927,-1.48875 -0.46927,-3.46295 0,-1.87712 0.48546,-3.36587 0.48546,-1.50492 1.39165,-2.54057 0.92238,-1.05184 2.21694,-1.60203 1.29456,-0.56637 2.89658,-0.56637 1.7153,0 2.91277,0.55019 1.21365,0.55019 1.99039,1.48875 0.77674,0.92237 1.13274,2.18457 0.37219,1.24602 0.37219,2.67004 z m -2.68622,-0.79292 q 0.0485,-2.10366 -0.93856,-3.30113 -0.97092,-1.19748 -2.89658,-1.19748 -0.9871,0 -1.73148,0.37219 -0.74437,0.37219 -1.24601,0.98711 -0.50165,0.61491 -0.77674,1.4402 -0.2751,0.8091 -0.30746,1.69911 z" /><path
       id="path864"
       style="fill:#ffffff;stroke-width:0.999994"
       d="m 714.40194,341.10216 q 0,1.11657 -0.42073,1.99039 -0.40456,0.87383 -1.16511,1.47257 -0.76056,0.59873 -1.81239,0.90619 -1.05183,0.30746 -2.31403,0.30746 -0.77674,0 -1.48875,-0.12945 -0.69582,-0.11328 -1.26219,-0.29128 -0.55019,-0.19419 -0.93856,-0.38837 -0.38837,-0.21037 -0.56637,-0.37219 -0.17801,-0.16182 -0.25892,-0.45309 -0.0809,-0.29128 -0.0809,-0.79292 0,-0.30746 0.0324,-0.51783 0.0324,-0.21036 0.0809,-0.33982 0.0485,-0.12946 0.12945,-0.178 0.0971,-0.0647 0.21037,-0.0647 0.178,0 0.51783,0.22655 0.356,0.21036 0.85764,0.46928 0.51783,0.25891 1.21366,0.48546 0.69582,0.21036 1.60202,0.21036 0.67964,0 1.22983,-0.14563 0.55019,-0.14564 0.95474,-0.42074 0.40455,-0.29127 0.61492,-0.72819 0.22655,-0.43691 0.22655,-1.03565 0,-0.61492 -0.32364,-1.03565 -0.30746,-0.42073 -0.82529,-0.74437 -0.51782,-0.32364 -1.1651,-0.56637 -0.64728,-0.25892 -1.34311,-0.53401 -0.67965,-0.27509 -1.34311,-0.61492 -0.64728,-0.356 -1.16511,-0.85765 -0.51782,-0.50164 -0.84146,-1.19747 -0.30746,-0.69582 -0.30746,-1.66674 0,-0.85765 0.32364,-1.63439 0.33982,-0.79292 1.00329,-1.37547 0.66346,-0.59874 1.65056,-0.95474 1.00329,-0.35601 2.33021,-0.35601 0.58256,0 1.16511,0.0971 0.58255,0.0971 1.05183,0.24273 0.46928,0.14563 0.79292,0.32364 0.33983,0.16182 0.50165,0.29127 0.178,0.12946 0.22654,0.22655 0.0647,0.0971 0.0809,0.22655 0.0324,0.11327 0.0485,0.29128 0.0324,0.178 0.0324,0.43691 0,0.2751 -0.0324,0.48546 -0.0162,0.19419 -0.0809,0.32364 -0.0486,0.12946 -0.12946,0.19419 -0.0809,0.0485 -0.178,0.0485 -0.14564,0 -0.42073,-0.178 -0.2751,-0.178 -0.71201,-0.37219 -0.43692,-0.21036 -1.03565,-0.38836 -0.58255,-0.17801 -1.34311,-0.17801 -0.67964,0 -1.19747,0.16182 -0.51782,0.14564 -0.85765,0.43692 -0.32364,0.27509 -0.50164,0.66346 -0.16182,0.38837 -0.16182,0.84147 0,0.6311 0.32364,1.06801 0.32364,0.42073 0.84147,0.74437 0.51782,0.32365 1.18128,0.58256 0.66347,0.25891 1.34311,0.534 0.69583,0.2751 1.35929,0.61492 0.67965,0.33982 1.19747,0.82529 0.51783,0.48546 0.82529,1.1651 0.32364,0.67965 0.32364,1.6182 z" /><path
       id="path866"
       style="fill:#ffffff;stroke-width:0.999994"
       d="m 725.38954,343.99875 q 0,0.46928 -0.0647,0.74437 -0.0647,0.2751 -0.19418,0.40455 -0.12946,0.12946 -0.38837,0.24273 -0.25892,0.11328 -0.59874,0.17801 -0.32364,0.0809 -0.69583,0.12945 -0.37218,0.0486 -0.74437,0.0486 -1.13274,0 -1.94184,-0.29128 -0.8091,-0.30746 -1.32693,-0.90619 -0.51782,-0.61492 -0.76056,-1.5373 -0.22654,-0.93855 -0.22654,-2.20075 v -8.51175 h -2.03894 q -0.24273,0 -0.38837,-0.25891 -0.14564,-0.25892 -0.14564,-0.84147 0,-0.30746 0.0324,-0.51782 0.0485,-0.21037 0.11327,-0.33983 0.0647,-0.14563 0.16182,-0.19418 0.11328,-0.0647 0.24273,-0.0647 h 2.02276 v -3.46295 q 0,-0.11328 0.0485,-0.21037 0.0647,-0.0971 0.21037,-0.16182 0.16182,-0.0809 0.42073,-0.11327 0.25891,-0.0324 0.64728,-0.0324 0.40455,0 0.66347,0.0324 0.25891,0.0324 0.40455,0.11327 0.14564,0.0647 0.21036,0.16182 0.0647,0.0971 0.0647,0.21037 v 3.46295 h 3.73805 q 0.12946,0 0.22655,0.0647 0.0971,0.0485 0.16182,0.19418 0.0809,0.12946 0.11327,0.33983 0.0324,0.21036 0.0324,0.51782 0,0.58255 -0.14564,0.84147 -0.14564,0.25891 -0.38837,0.25891 h -3.73805 v 8.12338 q 0,1.50493 0.43692,2.28167 0.45309,0.76055 1.60202,0.76055 0.37218,0 0.66346,-0.0647 0.29128,-0.0809 0.51783,-0.16182 0.22654,-0.0809 0.38836,-0.14564 0.16182,-0.0809 0.29128,-0.0809 0.0809,0 0.14564,0.0485 0.0809,0.0324 0.11327,0.14564 0.0485,0.11327 0.0809,0.30746 0.0324,0.19418 0.0324,0.48546 z" /><path
       id="path868"
       style="fill:#ffffff;stroke-width:0.999994"
       d="m 740.26082,325.72924 q 0,0.30745 -0.0324,0.534 -0.0324,0.22655 -0.11328,0.37219 -0.0809,0.12946 -0.19418,0.19418 -0.0971,0.0647 -0.21037,0.0647 h -7.67028 v 7.1201 h 7.24955 q 0.11328,0 0.21037,0.0647 0.11327,0.0485 0.19418,0.17801 0.0809,0.12945 0.11328,0.356 0.0324,0.21037 0.0324,0.55019 0,0.30746 -0.0324,0.53401 -0.0324,0.21036 -0.11328,0.356 -0.0809,0.12946 -0.19418,0.21037 -0.0971,0.0647 -0.21037,0.0647 h -7.24955 v 8.72211 q 0,0.11327 -0.0647,0.22655 -0.0647,0.0971 -0.22655,0.16182 -0.16182,0.0486 -0.42073,0.0809 -0.25891,0.0485 -0.67964,0.0485 -0.38837,0 -0.66347,-0.0485 -0.27509,-0.0324 -0.43691,-0.0809 -0.16182,-0.0647 -0.22655,-0.16182 -0.0647,-0.11328 -0.0647,-0.22655 v -19.38607 q 0,-0.6311 0.32364,-0.87383 0.33982,-0.25892 0.71201,-0.25892 h 9.41794 q 0.11328,0 0.21037,0.0647 0.11327,0.0647 0.19418,0.21037 0.0809,0.14564 0.11328,0.38837 0.0324,0.22655 0.0324,0.53401 z" /><path
       id="path870"
       style="fill:#ffffff;stroke-width:0.999994"
       d="m 746.83073,345.06676 q 0,0.12946 -0.0647,0.22655 -0.0647,0.0809 -0.21036,0.14564 -0.14564,0.0647 -0.40455,0.0971 -0.25892,0.0324 -0.66347,0.0324 -0.38837,0 -0.64728,-0.0324 -0.25891,-0.0324 -0.42073,-0.0971 -0.14564,-0.0647 -0.21037,-0.14564 -0.0485,-0.0971 -0.0485,-0.22655 v -21.61919 q 0,-0.12946 0.0485,-0.22655 0.0647,-0.0971 0.21037,-0.16182 0.16182,-0.0647 0.42073,-0.0971 0.25891,-0.0324 0.64728,-0.0324 0.40455,0 0.66347,0.0324 0.25891,0.0324 0.40455,0.0971 0.14563,0.0647 0.21036,0.16182 0.0647,0.0971 0.0647,0.22655 z" /><path
       id="path872"
       style="fill:#ffffff;stroke-width:0.999994"
       d="m 754.46865,345.06676 q 0,0.12946 -0.0647,0.22655 -0.0647,0.0809 -0.21037,0.14564 -0.14564,0.0647 -0.40455,0.0971 -0.25891,0.0324 -0.66346,0.0324 -0.38837,0 -0.64728,-0.0324 -0.25891,-0.0324 -0.42074,-0.0971 -0.14563,-0.0647 -0.21036,-0.14564 -0.0485,-0.0971 -0.0485,-0.22655 v -14.56383 q 0,-0.11327 0.0485,-0.21036 0.0647,-0.0971 0.21036,-0.16182 0.16183,-0.0647 0.42074,-0.0971 0.25891,-0.0324 0.64728,-0.0324 0.40455,0 0.66346,0.0324 0.25891,0.0324 0.40455,0.0971 0.14564,0.0647 0.21037,0.16182 0.0647,0.0971 0.0647,0.21036 z m 0.30746,-19.48316 q 0,0.93855 -0.35601,1.27838 -0.356,0.33982 -1.31074,0.33982 -0.93856,0 -1.29457,-0.32364 -0.33982,-0.33982 -0.33982,-1.2622 0,-0.93856 0.35601,-1.27838 0.356,-0.33982 1.31074,-0.33982 0.93856,0 1.27838,0.33982 0.35601,0.32364 0.35601,1.24602 z" /><path
       id="path874"
       style="fill:#ffffff;stroke-width:0.999994"
       d="m 771.60542,331.1664 q 0,0.56637 -0.16182,0.82528 -0.14564,0.24273 -0.38837,0.24273 h -2.08748 q 0.56637,0.58255 0.79292,1.29456 0.22654,0.69583 0.22654,1.45639 0,1.2622 -0.40455,2.23312 -0.40455,0.97092 -1.1651,1.65056 -0.74438,0.66347 -1.78003,1.01947 -1.03565,0.35601 -2.29785,0.35601 -0.89001,0 -1.69911,-0.22655 -0.79292,-0.24273 -1.22983,-0.59874 -0.29128,0.29128 -0.48546,0.66347 -0.17801,0.37218 -0.17801,0.85764 0,0.56638 0.51783,0.93856 0.53401,0.37219 1.40784,0.40455 l 3.80277,0.16182 q 1.0842,0.0324 1.99039,0.30746 0.9062,0.25891 1.56966,0.76056 0.66346,0.48546 1.03565,1.21365 0.37219,0.71201 0.37219,1.66675 0,1.00329 -0.42074,1.90948 -0.42073,0.90619 -1.29456,1.58584 -0.85765,0.69583 -2.20076,1.08419 -1.3431,0.40455 -3.17167,0.40455 -1.76384,0 -3.00986,-0.30745 -1.22984,-0.29128 -2.02276,-0.80911 -0.79291,-0.51782 -1.14892,-1.24601 -0.356,-0.71201 -0.356,-1.55348 0,-0.534 0.12945,-1.03565 0.12946,-0.50164 0.38837,-0.95474 0.2751,-0.45309 0.66346,-0.85764 0.40455,-0.42074 0.92238,-0.82529 -0.79292,-0.40455 -1.18129,-1.01947 -0.37219,-0.61491 -0.37219,-1.32692 0,-0.98711 0.40456,-1.76384 0.40455,-0.77674 1.00328,-1.39166 -0.50164,-0.59873 -0.79292,-1.34311 -0.29127,-0.76055 -0.29127,-1.82857 0,-1.24601 0.42073,-2.23312 0.42073,-0.9871 1.1651,-1.66675 0.74438,-0.67964 1.78003,-1.03565 1.05183,-0.37218 2.28166,-0.37218 0.66347,0 1.22984,0.0809 0.58255,0.0647 1.08419,0.19418 h 4.40152 q 0.27509,0 0.40455,0.2751 0.14564,0.25891 0.14564,0.8091 z m -4.17497,3.83514 q 0,-1.48875 -0.82528,-2.31403 -0.8091,-0.84147 -2.31403,-0.84147 -0.77674,0 -1.35929,0.25892 -0.56637,0.25891 -0.95474,0.712 -0.37219,0.4531 -0.56637,1.05184 -0.17801,0.58255 -0.17801,1.22983 0,1.4402 0.80911,2.26549 0.82528,0.82528 2.29784,0.82528 0.79292,0 1.37548,-0.24273 0.58255,-0.25891 0.95474,-0.69583 0.38837,-0.4531 0.56637,-1.03565 0.19418,-0.58255 0.19418,-1.21365 z m 1.34311,11.53779 q 0,-0.93856 -0.77674,-1.4402 -0.76055,-0.51783 -2.0713,-0.55019 l -3.77041,-0.12946 q -0.51782,0.40455 -0.85765,0.77674 -0.32364,0.356 -0.51782,0.67964 -0.19419,0.33983 -0.2751,0.66347 -0.0647,0.32364 -0.0647,0.66346 0,1.05183 1.06802,1.58584 1.06801,0.55019 2.97749,0.55019 1.21366,0 2.02276,-0.24273 0.82528,-0.22655 1.32692,-0.61492 0.50165,-0.38837 0.71201,-0.89001 0.22655,-0.50164 0.22655,-1.05183 z" /><path
       id="path876"
       style="fill:#ffffff;stroke-width:0.999994"
       d="m 787.57708,345.06676 q 0,0.12946 -0.0647,0.22655 -0.0647,0.0809 -0.21036,0.14564 -0.14564,0.0647 -0.40455,0.0971 -0.25891,0.0324 -0.64728,0.0324 -0.40455,0 -0.66347,-0.0324 -0.25891,-0.0324 -0.40455,-0.0971 -0.14564,-0.0647 -0.21036,-0.14564 -0.0647,-0.0971 -0.0647,-0.22655 v -8.52793 q 0,-1.24601 -0.19419,-2.00657 -0.19418,-0.76056 -0.56637,-1.31074 -0.37218,-0.55019 -0.97092,-0.84147 -0.58255,-0.29128 -1.35929,-0.29128 -1.00329,0 -2.00657,0.71201 -1.00329,0.71201 -2.10367,2.08748 v 10.1785 q 0,0.12946 -0.0647,0.22655 -0.0647,0.0809 -0.21037,0.14564 -0.14564,0.0647 -0.40455,0.0971 -0.25891,0.0324 -0.66346,0.0324 -0.38837,0 -0.64729,-0.0324 -0.25891,-0.0324 -0.42073,-0.0971 -0.14564,-0.0647 -0.21037,-0.14564 -0.0485,-0.0971 -0.0485,-0.22655 v -21.61919 q 0,-0.12946 0.0485,-0.22655 0.0647,-0.0971 0.21037,-0.16182 0.16182,-0.0647 0.42073,-0.0971 0.25892,-0.0324 0.64729,-0.0324 0.40455,0 0.66346,0.0324 0.25891,0.0324 0.40455,0.0971 0.14564,0.0647 0.21037,0.16182 0.0647,0.0971 0.0647,0.22655 v 8.72211 q 1.14893,-1.21365 2.31403,-1.7962 1.16511,-0.59874 2.3464,-0.59874 1.45638,0 2.44349,0.50165 1.00328,0.48546 1.6182,1.31074 0.61492,0.82528 0.87383,1.94184 0.27509,1.10038 0.27509,2.67004 z" /><path
       id="path878"
       style="fill:#ffffff;stroke-width:0.999994"
       d="m 799.69743,343.99875 q 0,0.46928 -0.0647,0.74437 -0.0647,0.2751 -0.19419,0.40455 -0.12945,0.12946 -0.38837,0.24273 -0.25891,0.11328 -0.59873,0.17801 -0.32364,0.0809 -0.69583,0.12945 -0.37218,0.0486 -0.74437,0.0486 -1.13274,0 -1.94185,-0.29128 -0.8091,-0.30746 -1.32692,-0.90619 -0.51783,-0.61492 -0.76056,-1.5373 -0.22655,-0.93855 -0.22655,-2.20075 v -8.51175 h -2.03893 q -0.24273,0 -0.38837,-0.25891 -0.14564,-0.25892 -0.14564,-0.84147 0,-0.30746 0.0324,-0.51782 0.0485,-0.21037 0.11327,-0.33983 0.0647,-0.14563 0.16182,-0.19418 0.11327,-0.0647 0.24273,-0.0647 h 2.02275 v -3.46295 q 0,-0.11328 0.0486,-0.21037 0.0647,-0.0971 0.21037,-0.16182 0.16182,-0.0809 0.42073,-0.11327 0.25891,-0.0324 0.64728,-0.0324 0.40455,0 0.66346,0.0324 0.25892,0.0324 0.40455,0.11327 0.14564,0.0647 0.21037,0.16182 0.0647,0.0971 0.0647,0.21037 v 3.46295 h 3.73805 q 0.12945,0 0.22655,0.0647 0.0971,0.0485 0.16182,0.19418 0.0809,0.12946 0.11327,0.33983 0.0324,0.21036 0.0324,0.51782 0,0.58255 -0.14564,0.84147 -0.14564,0.25891 -0.38837,0.25891 h -3.73805 v 8.12338 q 0,1.50493 0.43691,2.28167 0.4531,0.76055 1.60203,0.76055 0.37218,0 0.66346,-0.0647 0.29128,-0.0809 0.51782,-0.16182 0.22655,-0.0809 0.38837,-0.14564 0.16182,-0.0809 0.29128,-0.0809 0.0809,0 0.14564,0.0485 0.0809,0.0324 0.11327,0.14564 0.0485,0.11327 0.0809,0.30746 0.0324,0.19418 0.0324,0.48546 z" /></g><g
     style="fill:#ffffff;stroke-width:8.13413"
     transform="matrix(0.12293878,0,0,0.12293878,608.1092,305.68142)"
     id="g917"><g
       style="fill:#ffffff;stroke-width:8.13413"
       id="g6">
	<g
   style="fill:#ffffff;stroke-width:8.13413"
   id="g4">
		<path
   style="fill:#ffffff;stroke-width:8.13413"
   d="M 299.157,64.798 C 303.498,72.204 306,80.813 306,90 c 0,2.562 -0.016,5.124 -0.046,7.686 C 373.151,118.936 422,181.868 422,256 c 0,12.322 -1.361,24.331 -3.92,35.895 2.234,1.255 4.461,2.523 6.68,3.804 7.959,4.595 14.166,11.069 18.409,18.535 C 448.907,295.829 452,276.269 452,256 452,162.75 386.538,84.51 299.157,64.798 Z"
   id="path2" />
	</g>
</g><g
       style="fill:#ffffff;stroke-width:8.13413"
       id="g12">
	<g
   style="fill:#ffffff;stroke-width:8.13413"
   id="g10">
		<path
   style="fill:#ffffff;stroke-width:8.13413"
   d="M 212.843,64.798 C 125.462,84.51 60,162.75 60,256 c 0,20.269 3.093,39.829 8.831,58.234 4.243,-7.466 10.45,-13.94 18.409,-18.535 2.219,-1.281 4.446,-2.549 6.68,-3.804 C 91.361,280.331 90,268.322 90,256 90,181.868 138.849,118.936 206.046,97.686 206.016,95.124 206,92.562 206,90 c 0,-9.187 2.502,-17.796 6.843,-25.202 z"
   id="path8" />
	</g>
</g><g
       style="fill:#ffffff;stroke-width:8.13413"
       id="g18">
	<g
   style="fill:#ffffff;stroke-width:8.13413"
   id="g16">
		<path
   style="fill:#ffffff;stroke-width:8.13413"
   d="m 374.76,382.301 c -2.246,-1.297 -4.484,-2.607 -6.715,-3.931 C 338.494,405.45 299.145,422 256,422 c -43.145,0 -82.495,-16.55 -112.045,-43.63 -2.231,1.324 -4.469,2.634 -6.715,3.931 -7.908,4.565 -16.557,6.705 -25.09,6.675 C 147.979,427.707 199.202,452 256,452 c 56.798,0 108.021,-24.293 143.85,-63.024 -8.533,0.03 -17.182,-2.109 -25.09,-6.675 z"
   id="path14" />
	</g>
</g><g
       style="fill:#ffffff;stroke-width:8.13413"
       id="g28">
		<path
   style="fill:#ffffff;stroke-width:8.13413"
   id="path26"
   d="M 414.76,313.02 C 378.584,292.133 340.244,274.776 300.671,261.351 300.88,259.595 301,257.812 301,256 301,237.469 289.739,221.523 273.702,214.634 281.862,173.653 286,131.772 286,90 286,73.458 272.542,60 256,60 c -16.542,0 -30,13.458 -30,30 0,41.773 4.138,83.653 12.298,124.634 C 222.261,221.523 211,237.469 211,256 c 0,1.812 0.12,3.595 0.329,5.351 -39.573,13.425 -77.913,30.782 -114.089,51.669 -14.326,8.271 -19.251,26.655 -10.98,40.98 5.55,9.614 15.654,14.994 26.031,14.994 5.086,0 10.238,-1.293 14.95,-4.014 36.179,-20.887 70.383,-45.414 101.798,-72.976 7.518,5.646 16.855,8.996 26.961,8.996 10.106,0 19.443,-3.35 26.963,-8.995 31.415,27.562 65.619,52.088 101.797,72.976 4.713,2.721 9.863,4.014 14.95,4.014 10.375,0 20.481,-5.381 26.031,-14.994 8.271,-14.327 3.345,-32.71 -10.981,-40.981 z M 256,271 c -8.271,0 -15,-6.729 -15,-15 0,-8.271 6.729,-15 15,-15 8.271,0 15,6.729 15,15 0,8.271 -6.729,15 -15,15 z" />
	</g></g></g></svg>
